# File created by Blade
# Date/Time:  Wed Sep 24 20:26:02 2014
# Frame Rate: 120.000 fps
#------------------------------------------------------
:FULLY-SPECIFIED
:DEGREES
288
root -8.204554 32.497462 0.353434 60.392035 -84.383794 -45.304801
Spine -11.006984 6.124272 -2.883261
Head -5.076589 -6.002890 14.410170
LeftShoulder -11.716972 19.459760 12.976808
LeftArm 22.738084 35.478384 -72.147610
LeftForeArm 4.390058 -0.000000 25.541506
LeftHand -26.332046 -0.000000 -3.399383
LeftHandThumb1 -26.253704 0.000000 33.147579
RightShoulder -20.036068 10.386835 -22.950475
RightArm -18.819776 -28.047654 100.778850
RightForeArm -22.005249 -0.000000 19.716150
RightHand -5.289438 -0.000000 10.279964
RightHandThumb1 -24.326973 -0.000000 -32.862282
LeftUpLeg -9.415229 1.612499 -3.086903
LeftLeg -3.866971 -0.000000 0.000000
LeftFoot -11.694404 11.277671 -9.417603
LeftToeBase 6.491377 -0.000000 -0.000000
RightUpLeg -12.423227 -11.056119 -5.010963
RightLeg 3.326743 -0.000000 -0.000000
RightFoot -5.838430 0.087268 3.562955
RightToeBase -2.101098 -0.000000 0.000000
289
root -8.199591 32.496594 0.368562 61.238303 -84.411832 -46.090877
Spine -11.005121 6.101441 -2.863345
Head -5.069299 -5.893576 14.407027
LeftShoulder -11.662929 19.406100 12.958040
LeftArm 22.898975 35.514780 -72.017822
LeftForeArm 4.246807 -0.000000 25.746738
LeftHand -26.354374 -0.000000 -2.833374
LeftHandThumb1 -26.253704 0.000000 33.147579
RightShoulder -19.983197 10.417411 -22.916764
RightArm -18.818225 -28.504225 100.964770
RightForeArm -21.687267 -0.000000 19.769914
RightHand -5.163250 0.000000 10.655601
RightHandThumb1 -24.326973 -0.000000 -32.862282
LeftUpLeg -9.483705 1.692222 -3.102757
LeftLeg -3.865106 -0.000000 0.000000
LeftFoot -11.699094 11.254132 -9.416113
LeftToeBase 6.466472 -0.000000 -0.000000
RightUpLeg -12.488976 -11.086918 -4.982460
RightLeg 3.262389 -0.000000 -0.000000
RightFoot -5.673765 0.124798 3.428749
RightToeBase -2.487318 -0.000000 0.000000
290
root -8.194624 32.496543 0.384400 62.149158 -84.443949 -46.938619
Spine -11.002849 6.068713 -2.835582
Head -5.056312 -5.768131 14.374106
LeftShoulder -11.634089 19.371667 12.922153
LeftArm 23.082219 35.504365 -71.888354
LeftForeArm 4.184781 -0.000000 25.891890
LeftHand -26.490504 -0.000000 -2.817523
LeftHandThumb1 -26.253704 0.000000 33.147579
RightShoulder -19.924623 10.491696 -22.899468
RightArm -18.830750 -28.865562 101.142508
RightForeArm -21.537594 -0.000000 19.762157
RightHand -4.928052 -0.000000 10.900295
RightHandThumb1 -24.326973 -0.000000 -32.862282
LeftUpLeg -9.559829 1.766483 -3.121489
LeftLeg -3.853290 -0.000000 0.000000
LeftFoot -11.697760 11.264131 -9.348133
LeftToeBase 6.436242 -0.000000 -0.000000
RightUpLeg -12.552514 -11.067083 -4.970654
RightLeg 3.221511 -0.000000 -0.000000
RightFoot -5.655386 0.203034 3.705923
RightToeBase -2.325198 -0.000000 0.000000
291
root -8.188152 32.496237 0.400074 62.893895 -84.481384 -47.623468
Spine -10.995156 6.050230 -2.834225
Head -5.062820 -5.661525 14.373489
LeftShoulder -11.588322 19.304912 12.929146
LeftArm 23.236425 35.507672 -71.798835
LeftForeArm 4.078295 -0.000000 26.029630
LeftHand -26.440133 -0.000000 -2.347915
LeftHandThumb1 -26.253704 0.000000 33.147579
RightShoulder -19.876143 10.493915 -22.869949
RightArm -18.770062 -29.259791 101.311366
RightForeArm -21.281320 -0.000000 19.773245
RightHand -4.835594 -0.000000 11.420164
RightHandThumb1 -24.326973 -0.000000 -32.862282
LeftUpLeg -9.614028 1.737006 -3.138045
LeftLeg -3.882758 -0.000000 0.000000
LeftFoot -11.694171 11.361209 -9.329008
LeftToeBase 6.476008 -0.000000 -0.000000
RightUpLeg -12.607373 -11.084621 -4.970969
RightLeg 3.144338 -0.000000 -0.000000
RightFoot -5.589407 0.287819 3.676762
RightToeBase -2.239115 -0.000000 0.000000
292
root -8.183003 32.495706 0.413149 63.832521 -84.501578 -48.505432
Spine -10.987053 6.062082 -2.813134
Head -5.087697 -5.577568 14.366935
LeftShoulder -11.488555 19.246106 12.964703
LeftArm 23.334435 35.466383 -71.763459
LeftForeArm 4.023504 -0.000000 26.196258
LeftHand -26.417915 -0.000000 -2.233955
LeftHandThumb1 -26.253704 0.000000 33.147579
RightShoulder -19.883458 10.533657 -22.859899
RightArm -18.781823 -29.607653 101.480727
RightForeArm -21.095401 -0.000000 19.829277
RightHand -4.786599 -0.000000 11.693796
RightHandThumb1 -24.326973 -0.000000 -32.862282
LeftUpLeg -9.698670 1.848541 -3.152024
LeftLeg -3.841942 -0.000000 0.000000
LeftFoot -11.718471 11.341909 -9.252662
LeftToeBase 6.470771 -0.000000 -0.000000
RightUpLeg -12.662299 -11.085911 -4.940039
RightLeg 3.080505 -0.000000 -0.000000
RightFoot -5.501105 0.350058 3.675064
RightToeBase -2.305588 -0.000000 0.000000
